<svg width="15" height="15" viewBox="0 0 15 15" fill="none" xmlns="http://www.w3.org/2000/svg">
<path d="M1.875 7.5H5M1.875 7.5C1.875 10.6066 4.3934 13.125 7.5 13.125M1.875 7.5C1.875 4.3934 4.3934 1.875 7.5 1.875M5 7.5H10M5 7.5C5 10.6066 6.11929 13.125 7.5 13.125M5 7.5C5 4.3934 6.11929 1.875 7.5 1.875M10 7.5H13.125M10 7.5C10 4.3934 8.88071 1.875 7.5 1.875M10 7.5C10 10.6066 8.88071 13.125 7.5 13.125M13.125 7.5C13.125 4.3934 10.6066 1.875 7.5 1.875M13.125 7.5C13.125 10.6066 10.6066 13.125 7.5 13.125" stroke="#C4D977" stroke-linecap="round" stroke-linejoin="round"/>
</svg>
