<svg width="15" height="15" viewBox="0 0 15 15" fill="none" xmlns="http://www.w3.org/2000/svg">
<path d="M3.75 4.50012V10.4284C3.75 11.279 3.75 11.7043 3.87757 11.9645C4.11403 12.447 4.63223 12.7242 5.16479 12.6534C5.45213 12.6151 5.80602 12.3792 6.51381 11.9073L6.51551 11.9062C6.79605 11.7192 6.93634 11.6257 7.0831 11.5738C7.35263 11.4785 7.64672 11.4785 7.91626 11.5738C8.06331 11.6258 8.20415 11.7197 8.48582 11.9074C9.19361 12.3793 9.54791 12.615 9.83524 12.6533C10.3678 12.7241 10.886 12.447 11.1224 11.9645C11.25 11.7043 11.25 11.2789 11.25 10.4284V4.49807C11.25 3.79937 11.25 3.4495 11.1139 3.18237C10.994 2.94717 10.8023 2.75608 10.5671 2.63624C10.2997 2.5 9.95019 2.5 9.25012 2.5H5.75012C5.05006 2.5 4.69976 2.5 4.43237 2.63624C4.19717 2.75608 4.00608 2.94717 3.88624 3.18237C3.75 3.44976 3.75 3.80006 3.75 4.50012Z" stroke="#D9D9D9" stroke-linecap="round" stroke-linejoin="round"/>
</svg>
