<svg width="15" height="15" viewBox="0 0 15 15" fill="none" xmlns="http://www.w3.org/2000/svg">
<path d="M6.25012 3.125H5.12512C4.42506 3.125 4.07476 3.125 3.80737 3.26124C3.57217 3.38108 3.38108 3.57217 3.26124 3.80737C3.125 4.07476 3.125 4.42506 3.125 5.12512V9.87512C3.125 10.5752 3.125 10.925 3.26124 11.1924C3.38108 11.4276 3.57217 11.619 3.80737 11.7389C4.0745 11.875 4.42437 11.875 5.12307 11.875H9.87693C10.5756 11.875 10.925 11.875 11.1921 11.7389C11.4273 11.619 11.619 11.4274 11.7389 11.1922C11.875 10.9251 11.875 10.5756 11.875 9.87693V8.75M12.5 5.625V2.5M12.5 2.5H9.375M12.5 2.5L8.125 6.875" stroke="#D9D9D9" stroke-linecap="round" stroke-linejoin="round"/>
</svg>
