<svg width="9" height="12" viewBox="0 0 9 12" fill="none" xmlns="http://www.w3.org/2000/svg">
<path d="M0.75 2.50012V8.42835C0.75 9.27901 0.75 9.70426 0.877574 9.96454C1.11403 10.447 1.63223 10.7242 2.16479 10.6534C2.45213 10.6151 2.80602 10.3792 3.51381 9.90735L3.51551 9.90622C3.79605 9.71919 3.93634 9.62566 4.0831 9.57379C4.35263 9.47852 4.64672 9.47852 4.91626 9.57379C5.06331 9.62577 5.20415 9.71966 5.48582 9.90744C6.19361 10.3793 6.54791 10.615 6.83524 10.6533C7.3678 10.7241 7.88598 10.447 8.12244 9.96454C8.25 9.70428 8.25 9.27887 8.25 8.42835V2.49807C8.25 1.79937 8.25 1.4495 8.11389 1.18237C7.99405 0.94717 7.80232 0.756084 7.56712 0.636242C7.29973 0.5 6.95019 0.5 6.25012 0.5H2.75012C2.05006 0.5 1.69976 0.5 1.43237 0.636242C1.19717 0.756084 1.00608 0.94717 0.886242 1.18237C0.75 1.44976 0.75 1.80006 0.75 2.50012Z" fill="#D9C177" stroke="#D9C077" stroke-linecap="round" stroke-linejoin="round"/>
</svg>
