<svg width="112" height="119" viewBox="0 0 112 119" fill="none" xmlns="http://www.w3.org/2000/svg">
<path d="M56.7916 0.625H55.2083H51.4784C49.8216 0.625 48.4791 1.96815 48.4791 3.625V8.9375L38.3819 5.65591C34.7205 4.46595 30.7307 4.8363 27.3508 6.67985L19.5833 10.9167C23.6736 12.3681 32.3291 16.0625 34.2291 19.2292C25.6528 21.8681 7.94581 28.0167 5.72915 31.5C3.51248 34.9833 1.37498 42.7153 0.583313 46.1458C6.7847 43.2431 21.7208 37.2 31.8541 36.25C22.75 46.6736 4.14581 69.1042 2.56248 75.4375L12.4583 92.4583C21.6944 78.8681 43.3333 49.075 56 38.625C68.6666 49.075 90.3055 78.8681 99.5416 92.4583L109.437 75.4375C107.854 69.1042 89.25 46.6736 80.1458 36.25C90.2792 37.2 105.215 43.2431 111.417 46.1458C110.625 42.7153 108.487 34.9833 106.271 31.5C104.054 28.0167 86.3472 21.8681 77.7708 19.2292C79.6708 16.0625 88.3264 12.3681 92.4166 10.9167L84.6491 6.67985C81.2693 4.8363 77.2794 4.46595 73.618 5.65591L63.5208 8.9375V3.625C63.5208 1.96815 62.1784 0.625 60.5215 0.625H56.7916Z" fill="white"/>
<path d="M55.6042 118.979H56.7917H66.6875V49.7083C71.8334 54.8541 85.6875 70.5291 99.9375 92.0624L110.229 75.4374C105.083 66.3333 87.7459 41.4749 56.3959 11.7083H56C24.65 41.4749 7.31252 66.3333 2.16669 75.4374L12.4584 92.0624C26.7084 70.5291 40.5625 54.8541 45.7084 49.7083V118.979H55.6042Z" fill="white"/>
</svg>
