<svg width="15" height="15" viewBox="0 0 15 15" fill="none" xmlns="http://www.w3.org/2000/svg">
<path d="M5.71655 5.67101C5.8233 5.34208 6.01884 5.04935 6.28174 4.82468C6.54463 4.6 6.86487 4.45236 7.20642 4.39817C7.54797 4.34398 7.89764 4.38525 8.21716 4.51752C8.53669 4.64979 8.81341 4.86797 9.01672 5.14771C9.22004 5.42744 9.3418 5.75785 9.36898 6.1026C9.39616 6.44735 9.3274 6.79299 9.17043 7.10114C9.01346 7.40928 8.77461 7.66781 8.47976 7.84851C8.1849 8.02921 7.84582 8.12485 7.5 8.12485V8.75015M7.5 13.125C4.3934 13.125 1.875 10.6066 1.875 7.5C1.875 4.3934 4.3934 1.875 7.5 1.875C10.6066 1.875 13.125 4.3934 13.125 7.5C13.125 10.6066 10.6066 13.125 7.5 13.125ZM7.53113 10.625V10.6875L7.46887 10.6876V10.625H7.53113Z" stroke="#1E1E1E" stroke-linecap="round" stroke-linejoin="round"/>
</svg>
