<svg width="13" height="13" viewBox="0 0 13 13" fill="none" xmlns="http://www.w3.org/2000/svg">
<path d="M7.1875 11.9994C7.12226 12 7.04906 12 6.96546 12H3.19788C2.42931 12 2.04445 12 1.75061 11.8503C1.49189 11.7185 1.28169 11.5079 1.14987 11.2492C1 10.955 1 10.5702 1 9.80013V3.20013C1 2.43006 1 2.04474 1.14987 1.75061C1.28169 1.49189 1.49189 1.28169 1.75061 1.14987C2.04474 1 2.43006 1 3.20013 1H9.80013C10.5702 1 10.9547 1 11.2488 1.14987C11.5076 1.28169 11.7185 1.49189 11.8503 1.75061C12 2.04445 12 2.42931 12 3.19788V6.96386C12 7.04815 12 7.12186 11.9994 7.1875M7.1875 11.9994C7.38389 11.9976 7.5081 11.9905 7.62671 11.9621C7.76701 11.9284 7.90102 11.8726 8.02405 11.7972C8.16281 11.7122 8.28172 11.5936 8.51953 11.3558L11.3558 8.51953C11.5936 8.28172 11.7118 8.16281 11.7969 8.02405C11.8723 7.90102 11.928 7.76667 11.9617 7.62637C11.9902 7.50779 11.9975 7.38375 11.9994 7.1875M7.1875 11.9994V8.28757C7.1875 7.90253 7.1875 7.70987 7.26243 7.56281C7.32835 7.43344 7.43344 7.32835 7.56281 7.26243C7.70987 7.1875 7.9022 7.1875 8.28723 7.1875H11.9994" stroke="#1E1E1E" stroke-linecap="round" stroke-linejoin="round"/>
</svg>
