<svg width="196" height="93" viewBox="0 0 196 93" fill="none" xmlns="http://www.w3.org/2000/svg">
<path d="M154.136 56.5818C148.451 56.711 137.04 56.8916 136.584 56.5879C139.013 58.5377 142.852 65.0039 145.539 69.9836C146.866 72.443 147.503 75.2064 147.503 78.0011V81.595C147.503 84.0684 146.52 86.4405 144.771 88.1895C143.022 89.9384 140.65 90.921 138.177 90.921H110.464C110.015 90.921 109.651 90.5571 109.651 90.1081C109.651 89.6853 109.978 89.3393 110.389 89.2384C111.405 88.9886 112.377 88.4158 113.271 87.6733C117.166 84.4363 117.846 78.9286 117.846 73.8639V73.2342C117.846 70.2085 117.475 67.1942 116.741 64.2588L114.828 56.6046C113.72 52.1727 112.906 47.6684 112.628 43.1086C112.373 38.9244 112.196 33.9688 112.383 30.0468C112.695 23.4911 115.895 17.4298 117.456 15.2185C121.228 9.36525 132.284 -1.48285 146.332 1.95108C163.892 6.24349 169.355 14.0479 179.501 27.7055C187.617 38.6316 193.549 74.922 195.5 91.7015H159.209C159.209 81.0876 155.827 63.8659 154.136 56.5818Z" fill="#1E1E1E"/>
<path d="M131.113 16.3892C142.976 20.1353 150.884 41.3632 153.356 51.5089H143.99H134.625C118.08 38.7096 114.724 28.4859 115.114 24.974C115.504 20.5515 119.251 12.6431 131.113 16.3892Z" fill="white"/>
<path d="M34.7295 2.73145C34.3393 7.15389 33.0123 19.1205 30.8271 31.6074C28.7645 43.3941 18.1954 59.5852 12.3125 67.3809C11.6548 68.2524 11.0535 69.1579 10.5898 70.1465C7.73292 76.2378 4.70445 86.5677 11.3164 88.5801C15.2383 89.7737 19.106 87.2179 22.2324 83.7627C26.9398 78.5602 28.187 71.2971 28.3623 64.2832L28.7168 50.0801C28.8207 45.9235 30.156 41.891 32.5537 38.4941L33.5586 37.0713C35.6398 33.6894 42.0661 27.1592 51.1191 28.0957C62.4351 29.2665 65.1664 36.6806 65.5566 42.1436C65.9469 47.6066 60.4842 55.0203 51.1191 55.0205C44.3982 55.0205 39.8963 48.5311 38.0078 44.2842C37.6285 43.4313 36.9643 42.7256 36.0977 42.3789C34.6305 41.7921 32.9541 42.3466 32.126 43.6924L31.6514 44.4629C30.8929 45.6954 30.8017 47.226 31.4082 48.54L32.042 49.9141C32.5256 50.9618 33.2557 51.877 34.1699 52.5811L62.9551 74.748C65.3338 76.5799 66.7275 79.4127 66.7275 82.415C66.7275 87.7593 62.3951 92.0918 57.0508 92.0918H13.9268C13.2284 92.0918 12.5303 92.0392 11.8398 91.9346C5.03205 90.9029 0 85.0506 0 78.165V75.7021L1.95117 2.73145H34.7295ZM88.1895 0C96.5944 0 103.408 6.81377 103.408 15.2188C103.408 23.6236 96.5944 30.4375 88.1895 30.4375C85.6429 30.4375 83.2429 29.8108 81.1338 28.7051C79.9354 33.3003 77.3422 47.668 87.0186 50.3379C96.0716 52.8353 103.278 48.2567 105.749 45.6553V89.75C97.8144 91.9612 80.2291 93.2622 73.3613 80.7754C66.4935 68.2884 69.4595 50.338 71.8008 42.9238L79.1592 27.4688C75.4058 24.6973 72.9708 20.2425 72.9707 15.2188C72.9707 6.81383 79.7846 9.63859e-05 88.1895 0Z" fill="#1E1E1E"/>
</svg>
