<svg width="15" height="15" viewBox="0 0 15 15" fill="none" xmlns="http://www.w3.org/2000/svg">
<path d="M1.875 9.37514V10.5C1.875 11.2001 1.875 11.5499 2.01124 11.8172C2.13108 12.0524 2.32217 12.244 2.55737 12.3639C2.8245 12.5 3.17437 12.5 3.87307 12.5H13.1251M1.875 9.37514V3.125M1.875 9.37514L4.28337 7.36816L4.28537 7.36657C4.72104 7.0035 4.9393 6.82162 5.17596 6.74774C5.45554 6.66047 5.75669 6.67427 6.02722 6.7865C6.25656 6.88164 6.45766 7.08274 6.85985 7.48493L6.86388 7.48896C7.27232 7.8974 7.47708 8.10216 7.7101 8.19709C7.98585 8.30942 8.29283 8.3191 8.57544 8.22536C8.81504 8.14588 9.03388 7.95472 9.47144 7.57185L13.125 4.375" stroke="#D9D9D9" stroke-linecap="round" stroke-linejoin="round"/>
</svg>
