<svg width="117" height="38" viewBox="0 0 117 38" fill="none" xmlns="http://www.w3.org/2000/svg">
<path d="M36.504 37.64C35.8213 37.64 35.2027 37.4907 34.648 37.192C34.0933 36.936 33.816 36.3387 33.816 35.4C33.816 34.5893 34.2427 33.416 35.096 31.88C35.9493 30.344 37.1013 28.5947 38.552 26.632C40.0027 24.6267 41.6027 22.536 43.352 20.36C45.144 18.184 46.9787 16.072 48.856 14.024C50.7333 11.9333 52.5253 10.0133 54.232 8.264C55.9387 6.472 57.4533 4.97866 58.776 3.784C60.0987 2.58933 61.08 1.84266 61.72 1.544C61.9333 1.45866 62.0827 1.45866 62.168 1.544C62.2533 1.58666 62.1467 1.672 61.848 1.8C60.568 2.39733 59.0107 3.42133 57.176 4.872C55.384 6.28 53.4213 7.96533 51.288 9.928C49.1973 11.8907 47.0427 13.9813 44.824 16.2C42.6053 18.4187 40.4507 20.6373 38.36 22.856C36.312 25.032 34.392 27.08 32.6 29C30.8507 30.8773 29.3573 32.4987 28.12 33.864C26.8827 35.2293 26.0293 36.168 25.56 36.68C25.0053 37.2347 24.536 37.448 24.152 37.32C23.768 37.192 23.576 36.7227 23.576 35.912C23.576 34.8027 23.9173 33.416 24.6 31.752C25.2827 30.088 26.2 28.2747 27.352 26.312C28.504 24.3493 29.784 22.344 31.192 20.296C32.6 18.248 34.008 16.264 35.416 14.344C36.8667 12.3813 38.232 10.6107 39.512 9.032C40.8347 7.45333 41.944 6.152 42.84 5.128C43.7787 4.06133 44.3973 3.4 44.696 3.144C44.8667 3.016 45.144 2.93067 45.528 2.888C45.912 2.84533 45.9333 2.93066 45.592 3.144C44.7387 3.57066 43.5653 4.50933 42.072 5.96C40.5787 7.41066 38.872 9.18133 36.952 11.272C35.032 13.32 32.9627 15.5387 30.744 17.928C28.568 20.3173 26.3067 22.664 23.96 24.968C21.6133 27.272 19.288 29.384 16.984 31.304C14.7227 33.1813 12.5467 34.696 10.456 35.848C8.36533 37 6.46667 37.576 4.76 37.576C3.05333 37.576 1.85867 37.2773 1.176 36.68C0.493333 36.04 0.151999 35.4 0.151999 34.76C0.151999 33.9067 0.386666 33.288 0.856 32.904C1.32533 32.4773 1.77333 32.264 2.2 32.264C3.18133 32.264 3.672 32.6053 3.672 33.288C3.672 33.8 3.50133 34.1627 3.16 34.376C2.81867 34.5467 2.54133 34.632 2.328 34.632C1.944 34.632 1.64533 34.5893 1.432 34.504C1.21867 34.376 1.112 34.312 1.112 34.312C1.112 34.3973 1.15467 34.6533 1.24 35.08C1.28267 35.5067 1.56 35.9333 2.072 36.36C2.54133 36.744 3.39467 36.936 4.632 36.936C6.38133 36.936 8.32267 36.3173 10.456 35.08C12.632 33.8 14.9147 32.136 17.304 30.088C19.736 28.04 22.168 25.7787 24.6 23.304C27.0747 20.7867 29.464 18.2693 31.768 15.752C34.072 13.2347 36.2267 10.9093 38.232 8.776C40.2373 6.64267 41.9867 4.89333 43.48 3.528C44.9733 2.12 46.104 1.33066 46.872 1.16C47.4693 1.032 47.768 1.032 47.768 1.16C47.768 1.288 47.6613 1.45866 47.448 1.672C46.8933 2.09866 46.1253 2.952 45.144 4.232C44.1627 5.46933 43.0533 7.00533 41.816 8.84C40.5787 10.632 39.256 12.5947 37.848 14.728C36.4827 16.8613 35.1173 19.016 33.752 21.192C32.3867 23.368 31.1067 25.4587 29.912 27.464C28.76 29.4267 27.7573 31.176 26.904 32.712C26.0507 34.248 25.4533 35.4213 25.112 36.232C25.0693 36.3173 24.8987 36.4453 24.6 36.616C24.3013 36.7867 24.1733 36.8507 24.216 36.808C24.2587 36.7653 24.728 36.232 25.624 35.208C26.52 34.184 27.7147 32.84 29.208 31.176C30.744 29.4693 32.4933 27.592 34.456 25.544C36.4187 23.4533 38.488 21.2987 40.664 19.08C42.84 16.8613 44.9947 14.7067 47.128 12.616C49.304 10.4827 51.3733 8.584 53.336 6.92C55.2987 5.21333 57.0267 3.82666 58.52 2.76C60.056 1.69333 61.2507 1.11733 62.104 1.032C62.5733 0.946665 62.7867 1.01067 62.744 1.224C62.744 1.39467 62.6587 1.52267 62.488 1.608C61.5493 2.16267 60.376 3.18667 58.968 4.68C57.56 6.13067 56.024 7.85867 54.36 9.864C52.696 11.8693 50.9893 14.0027 49.24 16.264C47.4907 18.5253 45.8053 20.7653 44.184 22.984C42.6053 25.2027 41.176 27.2507 39.896 29.128C38.6587 30.9627 37.656 32.4987 36.888 33.736C36.1627 34.9307 35.8 35.656 35.8 35.912C35.8 36.2107 35.9493 36.4667 36.248 36.68C36.5893 36.8933 36.9733 37 37.4 37C38.3813 37 39.3413 36.7653 40.28 36.296C41.2613 35.8267 42.0933 35.3573 42.776 34.888C43.4587 34.376 43.8213 34.0987 43.864 34.056C44.0773 33.7573 44.2907 33.7787 44.504 34.12C44.7173 34.4613 44.5893 34.7387 44.12 34.952C44.12 34.952 43.736 35.1867 42.968 35.656C42.2427 36.0827 41.304 36.5307 40.152 37C39 37.4267 37.784 37.64 36.504 37.64ZM54.883 37.576C52.8777 37.576 51.555 37.128 50.915 36.232C50.275 35.2933 49.955 34.312 49.955 33.288C49.955 31.5387 50.403 29.9173 51.299 28.424C52.195 26.888 53.347 25.5227 54.755 24.328C56.163 23.1333 57.6137 22.216 59.107 21.576C60.643 20.8933 62.0083 20.552 63.203 20.552C64.0563 20.552 64.739 20.68 65.251 20.936C65.763 21.1493 66.019 21.6187 66.019 22.344C66.019 23.0267 65.6137 23.752 64.803 24.52C63.9923 25.288 62.9683 26.0347 61.731 26.76C60.4937 27.4427 59.1923 28.0827 57.827 28.68C56.5043 29.2347 55.2883 29.6827 54.179 30.024C53.0697 30.3653 52.259 30.536 51.747 30.536C51.747 30.536 51.747 30.4293 51.747 30.216C51.747 29.96 51.747 29.832 51.747 29.832C52.131 29.8747 52.7923 29.7467 53.731 29.448C54.7123 29.1493 55.8003 28.7653 56.995 28.296C58.1897 27.784 59.3417 27.208 60.451 26.568C61.603 25.928 62.5417 25.2453 63.267 24.52C64.035 23.7947 64.419 23.0907 64.419 22.408C64.419 22.0667 64.3123 21.768 64.099 21.512C63.9283 21.256 63.6083 21.128 63.139 21.128C62.4563 21.128 61.6243 21.4693 60.643 22.152C59.7043 22.792 58.7443 23.6453 57.763 24.712C56.7817 25.7787 55.8643 26.9093 55.011 28.104C54.1577 29.2987 53.4537 30.4507 52.899 31.56C52.387 32.6267 52.131 33.5227 52.131 34.248C52.131 35.1013 52.387 35.7413 52.899 36.168C53.411 36.5947 54.1577 36.808 55.139 36.808C56.8457 36.808 58.4457 36.4027 59.939 35.592C61.475 34.7387 62.8617 33.7573 64.099 32.648C65.3363 31.496 66.3817 30.4293 67.235 29.448C68.0883 28.424 68.6643 27.7627 68.963 27.464C68.963 27.464 69.027 27.528 69.155 27.656C69.3257 27.784 69.411 27.848 69.411 27.848C69.1123 28.1893 68.5363 28.872 67.683 29.896C66.8297 30.92 65.763 32.0293 64.483 33.224C63.203 34.4187 61.7523 35.4427 60.131 36.296C58.5097 37.1493 56.7603 37.576 54.883 37.576ZM82.3165 37.576C80.0552 37.576 78.9245 36.9147 78.9245 35.592C78.9245 34.7387 79.2018 33.8213 79.7565 32.84C80.3538 31.8587 81.0792 30.8773 81.9325 29.896C82.7858 28.872 83.6392 27.8693 84.4925 26.888C85.3885 25.9067 86.1138 25.0107 86.6685 24.2C87.2658 23.3467 87.5645 22.6213 87.5645 22.024C87.5645 21.8107 87.4578 21.64 87.2445 21.512C87.0738 21.3413 86.8178 21.256 86.4765 21.256C85.9645 21.256 85.2392 21.512 84.3005 22.024C83.4045 22.536 82.2525 23.4107 80.8445 24.648C79.4792 25.8427 77.8578 27.464 75.9805 29.512C74.1032 31.5173 71.9485 34.0347 69.5165 37.064C69.1325 36.9787 68.5565 36.936 67.7885 36.936C67.0205 36.936 66.3592 37.0213 65.8045 37.192C67.0418 35.4 68.2578 33.6507 69.4525 31.944C70.6472 30.2373 71.7352 28.68 72.7165 27.272C73.7405 25.864 74.5512 24.712 75.1485 23.816C75.7458 22.8773 76.0445 22.3013 76.0445 22.088C76.0445 21.704 75.8525 21.512 75.4685 21.512C75.0418 21.512 74.5085 21.8533 73.8685 22.536C73.2285 23.176 72.5245 24.008 71.7565 25.032C70.9885 26.0133 70.1992 27.016 69.3885 28.04L68.8125 27.656C69.6658 26.6747 70.4978 25.6507 71.3085 24.584C72.1192 23.5173 72.9512 22.6 73.8045 21.832C74.6578 21.064 75.5538 20.68 76.4925 20.68C76.9618 20.68 77.3885 20.808 77.7725 21.064C78.1992 21.2773 78.4125 21.64 78.4125 22.152C78.4125 22.6213 78.2205 23.1973 77.8365 23.88C77.4952 24.52 77.0258 25.2667 76.4285 26.12C75.8312 26.9307 75.1485 27.848 74.3805 28.872C73.6552 29.8533 72.8872 30.92 72.0765 32.072L72.1405 32.456C74.4018 29.9813 76.3005 27.976 77.8365 26.44C79.4152 24.904 80.7165 23.7307 81.7405 22.92C82.8072 22.0667 83.7245 21.4907 84.4925 21.192C85.3032 20.8507 86.0712 20.68 86.7965 20.68C87.7778 20.68 88.4818 20.8933 88.9085 21.32C89.3352 21.704 89.5485 22.2373 89.5485 22.92C89.5485 23.944 89.2498 25.032 88.6525 26.184C88.0552 27.2933 87.3085 28.4027 86.4125 29.512C85.5592 30.5787 84.6845 31.5813 83.7885 32.52C82.9352 33.416 82.2098 34.184 81.6125 34.824C81.0152 35.464 80.7165 35.8907 80.7165 36.104C80.7165 36.36 80.7805 36.552 80.9085 36.68C81.0792 36.808 81.4845 36.872 82.1245 36.872C83.7032 36.872 85.1965 36.3813 86.6045 35.4C88.0552 34.4187 89.4418 33.224 90.7645 31.816C92.0872 30.3653 93.3245 28.936 94.4765 27.528L94.9885 27.976C93.8365 29.3413 92.5778 30.7707 91.2125 32.264C89.8472 33.7573 88.4178 35.016 86.9245 36.04C85.4312 37.064 83.8952 37.576 82.3165 37.576ZM100.071 20.744C100.455 20.9147 101.031 21 101.799 21C102.61 21 103.292 20.9573 103.847 20.872C102.78 22.152 101.586 23.5387 100.263 25.032C98.9403 26.4827 97.6817 27.9333 96.487 29.384C95.2923 30.8347 94.311 32.136 93.543 33.288C92.7323 34.44 92.327 35.336 92.327 35.976C92.327 36.4027 92.455 36.68 92.711 36.808C92.9243 36.936 93.2017 37 93.543 37C94.567 37 95.6977 36.5947 96.935 35.784C98.215 34.9733 99.5163 33.928 100.839 32.648C102.204 31.3253 103.527 29.9173 104.807 28.424C106.087 26.9307 107.26 25.5227 108.327 24.2C109.436 22.8347 110.375 21.704 111.143 20.808C111.57 20.936 112.167 21 112.935 21C113.703 21 114.364 20.9573 114.919 20.872C113.81 22.28 112.572 23.7733 111.207 25.352C109.842 26.888 108.519 28.3813 107.239 29.832C106.002 31.24 104.978 32.4987 104.167 33.608C103.356 34.6747 102.951 35.4853 102.951 36.04C102.951 36.296 103.058 36.5093 103.271 36.68C103.527 36.808 103.868 36.872 104.295 36.872C105.234 36.872 106.236 36.552 107.303 35.912C108.412 35.2293 109.5 34.3973 110.567 33.416C111.676 32.392 112.722 31.368 113.703 30.344C114.727 29.2773 115.602 28.3387 116.327 27.528L116.839 27.976C116.156 28.7013 115.303 29.6187 114.279 30.728C113.298 31.7947 112.21 32.8613 111.015 33.928C109.863 34.952 108.69 35.8267 107.495 36.552C106.3 37.2347 105.17 37.576 104.103 37.576C103.506 37.576 102.951 37.4053 102.439 37.064C101.927 36.7227 101.671 36.104 101.671 35.208C101.671 34.3973 101.863 33.5653 102.247 32.712C102.631 31.816 103.036 31.048 103.463 30.408C103.89 29.7253 104.146 29.32 104.231 29.192L104.679 29.384C104.295 29.9387 103.676 30.6853 102.823 31.624C102.012 32.52 101.052 33.4373 99.943 34.376C98.8763 35.272 97.7457 36.04 96.551 36.68C95.3563 37.2773 94.183 37.576 93.031 37.576C91.1963 37.576 90.279 36.616 90.279 34.696C90.279 33.8853 90.6203 32.9253 91.303 31.816C91.9857 30.664 92.8603 29.448 93.927 28.168C94.951 26.8453 96.0177 25.544 97.127 24.264C98.2363 22.984 99.2177 21.8107 100.071 20.744Z" fill="#F0F0F0"/>
</svg>
