<svg width="15" height="15" viewBox="0 0 15 15" fill="none" xmlns="http://www.w3.org/2000/svg">
<path d="M6.25012 2.5H4.50012C3.80006 2.5 3.44976 2.5 3.18237 2.63624C2.94717 2.75608 2.75608 2.94717 2.63624 3.18237C2.5 3.44976 2.5 3.80006 2.5 4.50012V10.5001C2.5 11.2002 2.5 11.55 2.63624 11.8174C2.75608 12.0526 2.94717 12.2441 3.18237 12.3639C3.4495 12.5 3.79937 12.5 4.49807 12.5H10.5019C11.2006 12.5 11.55 12.5 11.8171 12.3639C12.0523 12.2441 12.244 12.0524 12.3639 11.8172C12.5 11.5501 12.5 11.2006 12.5 10.5019V8.75M10 3.125L6.25 6.875V8.75H8.125L11.875 5M10 3.125L11.875 1.25L13.75 3.125L11.875 5M10 3.125L11.875 5" stroke="#D9D9D9" stroke-linecap="round" stroke-linejoin="round"/>
</svg>
