<svg width="15" height="15" viewBox="0 0 15 15" fill="none" xmlns="http://www.w3.org/2000/svg">
<path d="M1.45911 6.46048C1.26333 6.27943 1.36967 5.95212 1.63448 5.92072L5.38672 5.47567C5.49464 5.46287 5.58839 5.3951 5.63391 5.29641L7.21655 1.86529C7.32824 1.62314 7.67249 1.62309 7.78418 1.86524L9.36682 5.29633C9.41234 5.39502 9.50548 5.46298 9.6134 5.47578L13.3658 5.92072C13.6307 5.95212 13.7367 6.27953 13.5409 6.46058L10.7671 9.02619C10.6873 9.09998 10.6518 9.20982 10.673 9.31641L11.4091 13.0225C11.4611 13.284 11.1827 13.4867 10.9501 13.3564L7.65297 11.5104C7.55814 11.4573 7.44292 11.4575 7.34809 11.5106L4.05065 13.356C3.81796 13.4862 3.53909 13.284 3.59106 13.0225L4.32735 9.31665C4.34853 9.21005 4.31309 9.09996 4.2333 9.02617L1.45911 6.46048Z" stroke="#1E1E1E" stroke-linecap="round" stroke-linejoin="round"/>
</svg>
