<svg width="15" height="15" viewBox="0 0 15 15" fill="none" xmlns="http://www.w3.org/2000/svg">
<path d="M10.625 13.125C10.625 11.3991 9.22589 10 7.5 10C5.77411 10 4.375 11.3991 4.375 13.125M10.625 13.125H11.1269C11.8256 13.125 12.175 13.125 12.4421 12.9889C12.6773 12.8691 12.8691 12.6773 12.9889 12.4421C13.125 12.175 13.125 11.8256 13.125 11.1269V3.87307C13.125 3.17437 13.125 2.8245 12.9889 2.55737C12.8691 2.32217 12.6773 2.13108 12.4421 2.01124C12.1747 1.875 11.8252 1.875 11.1251 1.875H3.87512C3.17506 1.875 2.82476 1.875 2.55737 2.01124C2.32217 2.13108 2.13108 2.32217 2.01124 2.55737C1.875 2.82476 1.875 3.17506 1.875 3.87512V11.1251C1.875 11.8252 1.875 12.1747 2.01124 12.4421C2.13108 12.6773 2.32217 12.8691 2.55737 12.9889C2.8245 13.125 3.17437 13.125 3.87307 13.125H4.375M10.625 13.125H4.375M7.5 8.125C6.46447 8.125 5.625 7.28553 5.625 6.25C5.625 5.21447 6.46447 4.375 7.5 4.375C8.53553 4.375 9.375 5.21447 9.375 6.25C9.375 7.28553 8.53553 8.125 7.5 8.125Z" stroke="#1E1E1E" stroke-linecap="round" stroke-linejoin="round"/>
</svg>
