<svg width="140" height="116" viewBox="0 0 140 116" fill="none" xmlns="http://www.w3.org/2000/svg">
<path d="M71 0H69H63.4991C61.8423 0 60.5 1.34315 60.5 3V10.5L46.2361 5.86424C42.5747 4.67428 38.5848 5.04463 35.205 6.88818L24 13C29.1667 14.8333 40.1 19.5 42.5 23.5C31.6667 26.8333 9.3 34.6 6.5 39C3.7 43.4 1 53.1667 0 57.5C7.83333 53.8333 26.7 46.2 39.5 45C28 58.1667 4.5 86.5 2.5 94.5L15 116C26.6667 98.8333 54 61.2 70 48C86 61.2 113.333 98.8333 125 116L137.5 94.5C135.5 86.5 112 58.1667 100.5 45C113.3 46.2 132.167 53.8333 140 57.5C139 53.1667 136.3 43.4 133.5 39C130.7 34.6 108.333 26.8333 97.5 23.5C99.9 19.5 110.833 14.8333 116 13L104.795 6.88818C101.415 5.04463 97.4253 4.67428 93.7639 5.86424L79.5 10.5V3C79.5 1.34315 78.1577 0 76.5009 0H71Z" fill="#156839"/>
</svg>
