<svg width="15" height="15" viewBox="0 0 15 15" fill="none" xmlns="http://www.w3.org/2000/svg">
<path d="M5.83634 9.99403C7.8091 9.88447 9.375 8.25016 9.375 6.25C9.375 4.17893 7.69607 2.5 5.625 2.5C3.55393 2.5 1.875 4.17893 1.875 6.25C1.875 6.98794 2.08809 7.67606 2.45618 8.25623L2.19116 9.05128L2.19074 9.05245C2.08923 9.35696 2.03846 9.50929 2.07461 9.61068C2.10612 9.69903 2.17605 9.76867 2.2644 9.80018C2.36545 9.83621 2.51672 9.78579 2.81918 9.68497L2.82349 9.68366L3.61877 9.41864C4.19894 9.78673 4.8871 9.99989 5.62504 9.99989C5.69595 9.99989 5.7664 9.99792 5.83634 9.99403ZM5.83634 9.99403C5.83639 9.99418 5.83629 9.99389 5.83634 9.99403ZM5.83634 9.99403C6.34942 11.4537 7.74006 12.5001 9.37509 12.5001C10.113 12.5001 10.801 12.2868 11.3812 11.9186L12.1763 12.1837L12.1778 12.184C12.4823 12.2855 12.6349 12.3363 12.7363 12.3002C12.8246 12.2687 12.8937 12.199 12.9252 12.1107C12.9614 12.0091 12.9107 11.8566 12.809 11.5513L12.5439 10.7562L12.6327 10.6091C12.9461 10.0612 13.1247 9.42644 13.1247 8.75C13.1247 6.67894 11.4461 5 9.375 5L9.23462 5.00259L9.16382 5.00605" stroke="#D9D9D9" stroke-linecap="round" stroke-linejoin="round"/>
</svg>
