<svg width="13" height="14" viewBox="0 0 13 14" fill="none" xmlns="http://www.w3.org/2000/svg">
<g clip-path="url(#clip0_208_124)">
<path d="M8.09056 12.4025C7.85858 12.8982 7.70523 13.436 7.64648 14.0001L12.5557 12.9945C12.7877 12.499 12.9409 11.961 12.9998 11.397L8.09056 12.4025Z" fill="#1E1E1E"/>
<path d="M12.5559 9.98193C12.7879 9.4864 12.9413 8.94842 13 8.38436L9.17589 9.16805V7.66151L12.5558 6.96941C12.7878 6.47388 12.9411 5.9359 12.9999 5.37184L9.17577 6.15486V0.736889C8.5898 1.05391 8.0694 1.4759 7.64638 1.97365V6.4682L6.11699 6.78143V0C5.53102 0.316908 5.01062 0.739006 4.5876 1.23677V7.09455L1.16558 7.79522C0.933594 8.29075 0.780134 8.82874 0.721271 9.3928L4.5876 8.60109V10.4983L0.444073 11.3467C0.212091 11.8423 0.0587471 12.3802 0 12.9443L4.33711 12.0562C4.69017 11.9854 4.99362 11.7843 5.19091 11.5075L5.98631 10.3713V10.371C6.06888 10.2535 6.11699 10.1117 6.11699 9.95909V8.28786L7.64638 7.97463V10.9877L12.5558 9.98171L12.5559 9.98193Z" fill="#1E1E1E"/>
</g>
<defs>
<clipPath id="clip0_208_124">
<rect width="13" height="14" fill="white"/>
</clipPath>
</defs>
</svg>
