<svg width="15" height="15" viewBox="0 0 15 15" fill="none" xmlns="http://www.w3.org/2000/svg">
<path d="M5.76904 5.625H4.50012C3.80006 5.625 3.44976 5.625 3.18237 5.76124C2.94717 5.88108 2.75608 6.07217 2.63624 6.30737C2.5 6.57476 2.5 6.92506 2.5 7.62512V11.1251C2.5 11.8252 2.5 12.175 2.63624 12.4424C2.75608 12.6776 2.94717 12.8691 3.18237 12.9889C3.4495 13.125 3.79939 13.125 4.49809 13.125H10.5019C11.2006 13.125 11.55 13.125 11.8171 12.9889C12.0523 12.869 12.244 12.6776 12.3639 12.4424C12.5 12.1753 12.5 11.8259 12.5 11.1272V7.62307C12.5 6.92437 12.5 6.5745 12.3639 6.30737C12.244 6.07217 12.0523 5.88108 11.8171 5.76124C11.5497 5.625 11.2002 5.625 10.5001 5.625H9.23058M5.76904 5.625H9.23058M5.76904 5.625C5.68939 5.625 5.625 5.56043 5.625 5.48077V3.75C5.625 2.71447 6.46447 1.875 7.5 1.875C8.53553 1.875 9.375 2.71447 9.375 3.75V5.48077C9.375 5.56043 9.31024 5.625 9.23058 5.625" stroke="#1E1E1E" stroke-linecap="round" stroke-linejoin="round"/>
</svg>
