<svg width="93" height="93" viewBox="0 0 93 93" fill="none" xmlns="http://www.w3.org/2000/svg">
<path d="M9.04797 40.055C7.83413 38.9325 8.49349 36.9032 10.1353 36.7085L33.3992 33.9492C34.0683 33.8699 34.6495 33.4497 34.9318 32.8378L44.7441 11.5649C45.4366 10.0635 47.5709 10.0632 48.2634 11.5646L58.0758 32.8373C58.358 33.4492 58.9355 33.8705 59.6046 33.9499L82.8698 36.7085C84.5116 36.9032 85.1691 38.9331 83.9552 40.0557L66.7576 55.9625C66.2629 56.4199 66.0426 57.1009 66.174 57.7618L70.7382 80.7394C71.0604 82.361 69.3345 83.6174 67.8919 82.8099L47.4499 71.3644C46.862 71.0353 46.1476 71.0368 45.5596 71.366L25.1156 82.807C23.6729 83.6145 21.9439 82.3609 22.2661 80.7393L26.8311 57.7633C26.9624 57.1024 26.7427 56.4198 26.248 55.9623L9.04797 40.055Z" fill="#F8AB00" stroke="#F5E74F" stroke-width="7" stroke-linecap="round" stroke-linejoin="round"/>
</svg>
